<?xml version="1.0" encoding="UTF-8" standalone="no"?>
<!DOCTYPE svg PUBLIC "-//W3C//DTD SVG 1.1//EN" "http://www.w3.org/Graphics/SVG/1.1/DTD/svg11.dtd">
<svg t="1692451992681" class="icon" width="53.87" viewBox="0 0 1024 1024" version="1.1" xmlns="http://www.w3.org/2000/svg" p-id="5377" width="200" height="200"><path d="M554.666667 469.333333V320l93.866666-94.293333c34.133333-33.706667 40.533333-87.466667 16.64-129.28A105.258667 105.258667 0 0 0 573.866667 42.666667c-8.96 0-19.2 1.28-27.306667 3.84C500.48 58.88 469.333333 101.546667 469.333333 149.333333v138.24L335.36 422.826667a253.696 253.696 0 0 0-53.333333 274.346666c32.853333 81.066667 104.533333 136.96 187.306666 151.466667v26.026667c0 11.093333-9.813333 21.333333-21.333333 21.333333H384v85.333333h64c57.6 0 106.666667-47.36 106.666667-106.666666V853.333333c86.613333 0 177.493333-81.92 177.493333-202.666666 0-98.133333-81.92-181.333333-177.493333-181.333334m0-320c0-9.813333 4.693333-17.493333 13.653333-20.053333 9.386667-2.56 19.2 1.28 23.893333 9.813333a21.333333 21.333333 0 0 1-3.413333 26.026667l-34.133333 36.693333V149.333333m-85.333334 341.333334c-41.386667 27.306667-72.533333 74.24-83.626666 117.76l83.626666 22.186666v130.133334a164.693333 164.693333 0 0 1-109.653333-96.426667c-25.173333-62.293333-11.52-133.12 35.413333-180.906667L469.333333 405.333333v85.333334m85.333334 277.333333v-215.893333c49.92 0 93.013333 46.933333 93.013333 98.56C647.68 725.333333 593.493333 768 554.666667 768z" p-id="5378"></path></svg>
